<!-- Generator: Adobe Illustrator 23.0.4, SVG Export Plug-In  -->
<svg version="1.1" xmlns="http://www.w3.org/2000/svg" xmlns:xlink="http://www.w3.org/1999/xlink" x="0px" y="0px"
	 width="1455.809px" height="450px" viewBox="0 0 1455.809 450" style="enable-background:new 0 0 1455.809 450;"
	 xml:space="preserve">
<style type="text/css">
	.st0{fill:#6B6A6B;}
	.st1{fill:#9D9FA2;}
</style>
<defs>
</defs>
<g id="LOGO_-_Museo_1_">
	<g id="gulliver_1_">
		<path id="G_1_" class="st0" d="M130.134,0.459C45.412,6.377,0,75.514,0,159.634c0,44.913,13.608,86.198,39.126,115.866
			c-0.003-0.004-0.007-0.007-0.01-0.011c0.006,0.007,0.013,0.014,0.019,0.021c1.489,1.731,3.018,3.422,4.588,5.072
			c0.381,0.401,0.782,0.779,1.168,1.175c1.208,1.239,2.421,2.472,3.676,3.663c0.677,0.643,1.384,1.254,2.074,1.883
			c0.202,0.184,0.403,0.367,0.606,0.55c0.512,0.46,1.009,0.936,1.529,1.388c0.286,0.249,0.571,0.5,0.86,0.746
			c0.827,0.708,1.684,1.382,2.529,2.069c-0.1-0.081-0.197-0.165-0.297-0.247c0.213,0.174,0.425,0.349,0.639,0.522
			c-0.114-0.092-0.229-0.183-0.342-0.275c0.577,0.469,1.146,0.95,1.731,1.409c0.346,0.272,0.687,0.548,1.037,0.816
			c0.871,0.67,1.768,1.308,2.657,1.957c-0.222-0.162-0.438-0.331-0.659-0.495c0.527,0.389,1.053,0.779,1.587,1.161
			c-0.31-0.222-0.621-0.442-0.928-0.666c0.549,0.399,1.094,0.803,1.649,1.194c0.406,0.286,0.804,0.58,1.213,0.862
			c0.905,0.623,1.833,1.218,2.756,1.819c-0.315-0.204-0.619-0.422-0.932-0.63c0.804,0.532,1.606,1.066,2.424,1.581
			c-0.499-0.315-0.998-0.63-1.492-0.951c0.532,0.346,1.067,0.687,1.604,1.025c0.463,0.291,0.916,0.596,1.384,0.881
			c0.931,0.57,1.879,1.117,2.827,1.664c-0.392-0.226-0.771-0.471-1.16-0.701c0.91,0.538,1.823,1.072,2.75,1.589
			c-0.087-0.048-0.177-0.093-0.263-0.142c0.231,0.13,0.461,0.262,0.694,0.39c0.377,0.208,0.744,0.428,1.124,0.632
			c0.951,0.514,1.914,1.011,2.881,1.503c-0.46-0.233-0.903-0.492-1.359-0.73c0.976,0.51,1.959,1.011,2.952,1.498
			c-0.282-0.138-0.573-0.264-0.853-0.404c0.593,0.297,1.188,0.59,1.787,0.878c0.263,0.126,0.52,0.261,0.783,0.385
			c1.935,0.915,3.907,1.777,5.906,2.603c0.175,0.072,0.345,0.149,0.521,0.22c2.09,0.853,4.217,1.651,6.375,2.405
			c0.09,0.031,0.178,0.066,0.268,0.097c2.227,0.772,4.492,1.487,6.79,2.15c0.03,0.009,0.059,0.018,0.089,0.026
			c12.788,3.68,26.658,5.691,41.607,5.691c27.787,0,49.166-6.145,65.928-17.846c9.018-6.296,16.721-14.174,23.316-23.628h1.257
			c0,0-0.631,9.427-0.631,16.97v15.078c0,57.822-42.105,78.56-90.497,78.56c-4.158,0-8.216-0.201-12.22-0.482c0,0,0.001,0,0.001,0
			c-43.202-3.036-76.394-20.886-76.394-20.886l-20.523,53.274c28.041,14.878,62.099,24.042,104.494,24.885
			c79.187-4.173,150.383-34.88,150.383-139.118V72.025c0-8.166,5.659-12.564,13.829-12.564h23.942h0.566V7.543h-50.215
			c-25.14,0-35.197,15.086-35.197,29.542c0,4.398,0,8.165,0,8.165h-1.253c0,0-11.322-15.316-19.697-21.182h-0.001
			C205.771,12.294,180.698,0,142.034,0C137.974,0,134.028,0.187,130.134,0.459 M157.031,269.475
			c-56.892,0-89.586-50.023-89.586-112.86c0-60.721,30.61-103.676,84.035-103.676c47.877,0,86.65,25.297,86.65,107.21
			C238.128,241.344,199.356,269.475,157.031,269.475z"/>
		<path id="u_2_" class="st0" d="M331.577,139.2c0-6.082-3.244-8.919-8.919-8.919h-16.219V86.487H355.5
			c19.057,0,27.165,8.518,27.165,27.165v95.286c0,25.141,6.489,42.166,32.031,42.166c37.302,0,57.981-32.84,57.981-69.738V86.487
			h51.495v154.482c0,5.675,3.242,8.919,8.919,8.919h16.219v43.387h-47.439c-17.841,0-27.168-8.518-27.168-23.112v-5.675
			c0-4.867,0.407-9.326,0.407-9.326h-0.811c-9.73,21.49-35.68,42.98-71.363,42.98c-44.195,0-71.36-22.304-71.36-78.662V139.2z"/>
		<path id="l_2_" class="st0" d="M578.76,58.107c0-6.082-3.244-8.919-8.922-8.919h-16.219V5.394h49.062
			c19.057,0,27.572,8.518,27.572,27.572v208.003c0,5.675,3.244,8.919,8.919,8.919h15.815v43.387h-48.657
			c-19.461,0-27.569-8.111-27.569-27.572V58.107z"/>
		<path id="l_1_" class="st0" d="M685.786,58.107c0-6.082-3.242-8.919-8.919-8.919h-16.219V5.394h49.062
			c19.057,0,27.572,8.518,27.572,27.572v208.003c0,5.675,3.244,8.919,8.919,8.919h15.815v43.387h-48.657
			c-19.461,0-27.572-8.111-27.572-27.572V58.107z"/>
		<path id="i_2_" class="st0" d="M796.826,139.2c0-6.082-3.244-8.919-8.922-8.919h-16.216V86.487h49.059
			c19.057,0,27.168,8.518,27.168,27.572v126.91c0,5.675,3.244,8.919,8.919,8.919h16.219v43.387h-49.062
			c-19.057,0-27.165-8.111-27.165-27.572V139.2z M799.259,5.394h44.599v47.439h-44.599V5.394z"/>
		<path id="v_1_" class="st0" d="M888.694,137.577c-2.026-5.273-5.678-7.297-11.353-7.297h-4.46V86.487h29.598
			c17.03,0,25.138,5.273,30.409,19.461l38.924,108.665c4.46,12.164,7.704,29.601,7.704,29.601h0.811c0,0,3.244-17.437,7.297-29.601
			l38.924-108.665c5.271-14.187,13.786-19.461,30.409-19.461h27.572v43.794h-4.864c-5.678,0-9.326,2.024-11.353,7.297
			l-59.199,155.697H947.89L888.694,137.577z"/>
		<path id="e_1_" class="st0" d="M1198.243,81.62c59.199,0,91.635,43.387,91.635,98.123c0,6.082-1.215,19.059-1.215,19.059H1145.94
			c4.056,36.491,30.816,55.545,62.036,55.545c33.247,0,57.981-23.112,57.981-23.112l21.49,35.683c0,0-31.627,31.223-83.122,31.223
			c-68.522,0-111.095-49.468-111.095-108.263C1093.23,126.222,1136.21,81.62,1198.243,81.62z M1237.168,163.12
			c-0.811-24.734-17.839-41.764-38.924-41.764c-26.354,0-45.006,15.815-50.681,41.764H1237.168z"/>
		<path id="r_1_" class="st0" d="M1331.334,139.2c0-6.082-3.244-8.919-8.919-8.919h-16.219V86.487h47.032
			c18.245,0,27.572,7.704,27.572,25.141v12.164c0,7.704-0.811,12.972-0.811,12.972h0.811c9.326-29.595,34.058-53.114,65.688-53.114
			c4.46,0,9.321,0.814,9.321,0.814v50.678c0,0-5.268-0.808-12.565-0.808c-21.897,0-47.035,12.571-56.361,43.381
			c-2.838,10.14-4.46,21.49-4.46,33.654v81.907h-51.088V139.2z"/>
	</g>
	<g id="studios_1_">
		<path id="s_2_" class="st1" d="M368.392,386.636c-1.914-4.597-5.933-8.039-11.102-8.039c-4.977,0-9.571,2.87-9.571,8.996
			c0,5.741,3.827,7.468,12.826,11.295c11.485,4.784,16.846,8.424,19.909,12.252c3.445,4.212,4.209,8.424,4.209,12.824
			c0,16.656-12.059,26.038-27.374,26.038c-3.255,0-21.058-0.385-27.759-20.291l11.869-4.977c1.531,4.207,6.126,13.016,16.082,13.016
			c8.996,0,13.016-6.703,13.016-12.637c0-7.468-5.359-9.953-12.826-13.208c-9.571-4.212-15.697-7.275-19.334-11.674
			c-3.063-3.833-3.638-7.66-3.638-11.68c0-13.973,9.763-22.205,23.164-22.205c4.212,0,15.507,0.764,21.823,14.358L368.392,386.636z"
			/>
		<path id="t_1_" class="st1" d="M511.12,380.889v66.812h-13.783v-66.812h-8.424v-12.631h8.424v-28.715h13.783v28.715h13.783v12.631
			H511.12z"/>
		<path id="u_1_" class="st1" d="M646.589,414.581c0,5.554,0,12.065,3.827,17.041c2.106,2.678,6.318,6.126,13.976,6.126
			s11.867-3.448,13.973-6.126c3.83-4.977,3.83-11.487,3.83-17.041v-46.323h13.783v47.857c0,9.761-0.957,17.036-7.275,23.926
			c-7.083,7.468-16.464,9.959-24.311,9.959c-7.85,0-17.231-2.491-24.314-9.959c-6.315-6.89-7.275-14.165-7.275-23.926v-47.857
			h13.786V414.581z"/>
		<path id="d_1_" class="st1" d="M875.958,308.149h13.783v139.552h-13.783v-11.102C871.364,442.532,862.75,450,848.774,450
			c-20.099,0-38.669-14.165-38.669-42.116c0-27.374,18.378-41.539,38.669-41.539c15.315,0,23.547,8.419,27.184,13.208V308.149z
			 M824.271,407.884c0,17.036,9.574,29.865,26.038,29.865c16.843,0,26.417-13.978,26.417-29.672c0-20.484-14.165-29.48-26.417-29.48
			C836.715,378.596,824.271,388.549,824.271,407.884z"/>
		<path id="i_1_" class="st1" d="M1015.854,328.44c5.362,0,9.763,4.405,9.763,9.761c0,5.361-4.402,9.766-9.763,9.766
			c-5.361,0-9.763-4.405-9.763-9.766C1006.091,332.845,1010.493,328.44,1015.854,328.44z M1022.745,368.258v79.443h-13.78v-79.443
			H1022.745z"/>
		<path id="o_1_" class="st1" d="M1136.43,408.268c0-24.124,17.803-41.924,42.116-41.924c24.311,0,42.114,17.8,42.114,41.924
			c0,24.118-17.995,41.732-42.114,41.732C1154.425,450,1136.43,432.387,1136.43,408.268z M1150.595,408.268
			c0,19.521,13.786,29.48,27.951,29.48c14.358,0,27.948-10.146,27.948-29.48c0-19.527-13.401-29.672-27.948-29.672
			C1163.996,378.596,1150.595,388.934,1150.595,408.268z"/>
		<path id="s_1_" class="st1" d="M1366.624,386.636c-1.914-4.597-5.933-8.039-11.102-8.039c-4.976,0-9.571,2.87-9.571,8.996
			c0,5.741,3.827,7.468,12.826,11.295c11.484,4.784,16.846,8.424,19.909,12.252c3.445,4.212,4.212,8.424,4.212,12.824
			c0,16.656-12.062,26.038-27.377,26.038c-3.253,0-21.058-0.385-27.756-20.291l11.867-4.977c1.531,4.207,6.126,13.016,16.082,13.016
			c8.996,0,13.016-6.703,13.016-12.637c0-7.468-5.359-9.953-12.826-13.208c-9.571-4.212-15.697-7.275-19.334-11.674
			c-3.063-3.833-3.638-7.66-3.638-11.68c0-13.973,9.763-22.205,23.164-22.205c4.212,0,15.507,0.764,21.823,14.358L1366.624,386.636z
			"/>
	</g>
</g>
</svg>