<!-- Generator: Adobe Illustrator 23.0.4, SVG Export Plug-In  -->
<svg version="1.1" xmlns="http://www.w3.org/2000/svg" xmlns:xlink="http://www.w3.org/1999/xlink" x="0px" y="0px"
	 width="1358.755px" height="420px" viewBox="0 0 1358.755 420" style="enable-background:new 0 0 1358.755 420;"
	 xml:space="preserve">
<style type="text/css">
	.st0{fill:#E2DBC9;}
	.st1{fill:#2B2B2D;}
</style>
<defs>
</defs>
<g id="logo_x5F_all_1_">
	<g id="LOGO_-_Museo_1_">
		<g id="gulliver_1_">
			<path id="G_1_" class="st0" d="M121.458,0.429C42.384,5.952,0,70.48,0,148.992c0,41.918,12.701,80.451,36.518,108.142
				c-0.003-0.004-0.006-0.007-0.009-0.01c0.006,0.007,0.012,0.013,0.018,0.02c1.39,1.615,2.817,3.194,4.282,4.734
				c0.355,0.374,0.73,0.728,1.09,1.097c1.128,1.156,2.26,2.308,3.431,3.418c0.632,0.6,1.292,1.17,1.936,1.757
				c0.188,0.171,0.376,0.343,0.565,0.513c0.478,0.429,0.942,0.873,1.427,1.295c0.267,0.233,0.533,0.466,0.802,0.697
				c0.772,0.661,1.572,1.289,2.361,1.931c-0.093-0.076-0.184-0.154-0.277-0.23c0.199,0.163,0.397,0.326,0.597,0.487
				c-0.106-0.086-0.213-0.171-0.319-0.257c0.539,0.438,1.069,0.886,1.616,1.315c0.323,0.253,0.642,0.512,0.967,0.762
				c0.813,0.625,1.65,1.221,2.48,1.826c-0.207-0.151-0.408-0.309-0.615-0.462c0.492,0.363,0.983,0.728,1.481,1.084
				c-0.289-0.207-0.579-0.413-0.866-0.622c0.512,0.373,1.021,0.749,1.539,1.114c0.379,0.267,0.75,0.542,1.132,0.804
				c0.845,0.582,1.71,1.137,2.572,1.698c-0.294-0.191-0.578-0.394-0.87-0.588c0.75,0.497,1.499,0.995,2.262,1.476
				c-0.465-0.294-0.932-0.588-1.392-0.888c0.496,0.323,0.996,0.641,1.497,0.956c0.432,0.272,0.855,0.556,1.291,0.822
				c0.869,0.532,1.754,1.043,2.639,1.553c-0.366-0.211-0.719-0.439-1.083-0.654c0.85,0.502,1.702,1.001,2.566,1.483
				c-0.081-0.045-0.165-0.087-0.246-0.132c0.216,0.121,0.43,0.244,0.647,0.364c0.352,0.194,0.695,0.399,1.049,0.59
				c0.887,0.48,1.786,0.943,2.689,1.402c-0.43-0.218-0.842-0.459-1.268-0.682c0.911,0.476,1.828,0.944,2.755,1.398
				c-0.263-0.129-0.534-0.246-0.796-0.377c0.553,0.277,1.109,0.55,1.668,0.819c0.245,0.118,0.485,0.243,0.731,0.359
				c1.806,0.854,3.647,1.659,5.512,2.43c0.163,0.067,0.322,0.139,0.486,0.206c1.951,0.796,3.936,1.541,5.95,2.244
				c0.084,0.029,0.166,0.061,0.25,0.09c2.078,0.72,4.192,1.388,6.337,2.007c0.028,0.008,0.055,0.017,0.083,0.025
				c11.936,3.435,24.881,5.312,38.834,5.312c25.934,0,45.889-5.735,61.533-16.657c8.417-5.876,15.606-13.229,21.762-22.053h1.173
				c0,0-0.589,8.798-0.589,15.839v14.073c0,53.968-39.298,73.323-84.464,73.323c-3.881,0-7.668-0.187-11.406-0.45
				c0,0,0.001,0,0.001,0c-40.322-2.833-71.301-19.494-71.301-19.494l-19.154,49.723c26.171,13.886,57.959,22.44,97.528,23.226
				c73.908-3.895,140.357-32.555,140.357-129.844V67.224c0-7.621,5.282-11.726,12.907-11.726h22.346h0.529V7.04h-46.867
				c-23.464,0-32.851,14.081-32.851,27.573c0,4.105,0,7.621,0,7.621h-1.169c0,0-10.567-14.295-18.384-19.769h-0.001
				C192.052,11.475,168.651,0,132.565,0C128.776,0,125.093,0.175,121.458,0.429 M146.562,251.51
				c-53.099,0-83.614-46.688-83.614-105.336c0-56.673,28.57-96.765,78.432-96.765c44.685,0,80.873,23.61,80.873,100.063
				C222.253,225.254,186.066,251.51,146.562,251.51z"/>
			<path id="u_2_" class="st0" d="M309.472,129.92c0-5.676-3.028-8.325-8.325-8.325h-15.138V80.721H331.8
				c17.786,0,25.354,7.95,25.354,25.354v88.933c0,23.465,6.056,39.355,29.896,39.355c34.815,0,54.115-30.65,54.115-65.088V80.721
				h48.062v144.183c0,5.297,3.026,8.325,8.325,8.325h15.138v40.494h-44.277c-16.652,0-25.356-7.95-25.356-21.571v-5.297
				c0-4.542,0.38-8.704,0.38-8.704h-0.757c-9.082,20.057-33.301,40.114-66.605,40.114c-41.249,0-66.602-20.817-66.602-73.418V129.92
				z"/>
			<path id="l_2_" class="st0" d="M540.176,54.233c0-5.676-3.028-8.325-8.327-8.325h-15.138V5.034h45.791
				c17.786,0,25.734,7.95,25.734,25.734v194.136c0,5.297,3.028,8.325,8.325,8.325h14.761v40.494h-45.414
				c-18.163,0-25.731-7.57-25.731-25.734V54.233z"/>
			<path id="l_1_" class="st0" d="M640.067,54.233c0-5.676-3.026-8.325-8.325-8.325h-15.138V5.034h45.791
				c17.786,0,25.734,7.95,25.734,25.734v194.136c0,5.297,3.028,8.325,8.325,8.325h14.761v40.494H665.8
				c-18.163,0-25.734-7.57-25.734-25.734V54.233z"/>
			<path id="i_2_" class="st0" d="M743.704,129.92c0-5.676-3.028-8.325-8.327-8.325h-15.135V80.721h45.788
				c17.786,0,25.356,7.95,25.356,25.734v118.449c0,5.297,3.028,8.325,8.325,8.325h15.138v40.494h-45.791
				c-17.786,0-25.354-7.57-25.354-25.734V129.92z M745.975,5.034h41.626v44.277h-41.626V5.034z"/>
			<path id="v_1_" class="st0" d="M829.448,128.406c-1.891-4.922-5.299-6.811-10.596-6.811h-4.162V80.721h27.625
				c15.895,0,23.463,4.922,28.382,18.163l36.329,101.42c4.162,11.353,7.19,27.627,7.19,27.627h0.757c0,0,3.028-16.275,6.811-27.627
				l36.329-101.42c4.919-13.241,12.867-18.163,28.382-18.163h25.734v40.874h-4.54c-5.299,0-8.704,1.889-10.596,6.811
				l-55.252,145.317h-57.144L829.448,128.406z"/>
			<path id="e_1_" class="st0" d="M1118.361,76.179c55.252,0,85.525,40.494,85.525,91.582c0,5.676-1.134,17.789-1.134,17.789
				h-133.208c3.785,34.058,28.762,51.842,57.901,51.842c31.03,0,54.115-21.571,54.115-21.571l20.057,33.304
				c0,0-29.519,29.141-77.581,29.141c-63.954,0-103.689-46.171-103.689-101.046C1020.348,117.807,1060.463,76.179,1118.361,76.179z
				 M1154.69,152.245c-0.757-23.085-16.649-38.98-36.329-38.98c-24.597,0-42.006,14.761-47.302,38.98H1154.69z"/>
			<path id="r_1_" class="st0" d="M1242.579,129.92c0-5.676-3.028-8.325-8.325-8.325h-15.138V80.721h43.897
				c17.029,0,25.734,7.19,25.734,23.465v11.353c0,7.19-0.757,12.107-0.757,12.107h0.757c8.704-27.622,31.787-49.573,61.308-49.573
				c4.162,0,8.699,0.76,8.699,0.76v47.3c0,0-4.917-0.754-11.727-0.754c-20.437,0-43.9,11.733-52.604,40.489
				c-2.648,9.464-4.162,20.057-4.162,31.41v76.446h-47.682V129.92z"/>
		</g>
		<g id="studios_1_">
			<path id="s_2_" class="st1" d="M343.833,360.86c-1.786-4.291-5.538-7.504-10.362-7.504c-4.645,0-8.933,2.679-8.933,8.397
				c0,5.358,3.572,6.97,11.971,10.542c10.719,4.465,15.723,7.863,18.582,11.435c3.215,3.931,3.929,7.863,3.929,11.969
				c0,15.546-11.255,24.302-25.549,24.302c-3.038,0-19.654-0.359-25.908-18.938l11.078-4.645c1.429,3.926,5.717,12.148,15.01,12.148
				c8.397,0,12.148-6.256,12.148-11.794c0-6.97-5.001-9.29-11.971-12.328c-8.933-3.931-14.65-6.79-18.045-10.896
				c-2.859-3.577-3.395-7.149-3.395-10.901c0-13.041,9.112-20.724,21.62-20.724c3.931,0,14.473,0.713,20.368,13.401L343.833,360.86z
				"/>
			<path id="t_1_" class="st1" d="M477.045,355.497v62.358h-12.864v-62.358h-7.863v-11.789h7.863v-26.801h12.864v26.801h12.864
				v11.789H477.045z"/>
			<path id="u_1_" class="st1" d="M603.483,386.943c0,5.184,0,11.26,3.572,15.905c1.966,2.499,5.897,5.717,13.044,5.717
				s11.076-3.218,13.041-5.717c3.575-4.645,3.575-10.721,3.575-15.905v-43.235h12.864v44.667c0,9.11-0.893,15.9-6.79,22.331
				c-6.61,6.97-15.366,9.295-22.69,9.295c-7.326,0-16.082-2.325-22.693-9.295c-5.895-6.431-6.79-13.221-6.79-22.331v-44.667h12.867
				V386.943z"/>
			<path id="d_1_" class="st1" d="M817.561,287.606h12.864v130.249h-12.864v-10.362C813.273,413.03,805.233,420,792.19,420
				c-18.759,0-36.091-13.221-36.091-39.309c0-25.549,17.152-38.77,36.091-38.77c14.294,0,21.977,7.858,25.372,12.328V287.606z
				 M769.32,380.691c0,15.9,8.935,27.874,24.302,27.874c15.72,0,24.656-13.046,24.656-27.694c0-19.118-13.221-27.515-24.656-27.515
				C780.934,353.356,769.32,362.646,769.32,380.691z"/>
			<path id="i_1_" class="st1" d="M948.131,306.544c5.004,0,9.112,4.111,9.112,9.11c0,5.004-4.108,9.115-9.112,9.115
				s-9.112-4.111-9.112-9.115C939.018,310.655,943.127,306.544,948.131,306.544z M954.562,343.708v74.147H941.7v-74.147H954.562z"/>
			<path id="o_1_" class="st1" d="M1060.668,381.051c0-22.516,16.616-39.129,39.309-39.129c22.69,0,39.306,16.613,39.306,39.129
				c0,22.51-16.796,38.949-39.306,38.949C1077.463,420,1060.668,403.561,1060.668,381.051z M1073.889,381.051
				c0,18.22,12.867,27.515,26.088,27.515c13.401,0,26.085-9.469,26.085-27.515c0-18.225-12.508-27.694-26.085-27.694
				C1086.396,353.356,1073.889,363.005,1073.889,381.051z"/>
			<path id="s_1_" class="st1" d="M1275.516,360.86c-1.786-4.291-5.538-7.504-10.362-7.504c-4.645,0-8.933,2.679-8.933,8.397
				c0,5.358,3.572,6.97,11.971,10.542c10.719,4.465,15.723,7.863,18.582,11.435c3.215,3.931,3.931,7.863,3.931,11.969
				c0,15.546-11.258,24.302-25.551,24.302c-3.036,0-19.654-0.359-25.906-18.938l11.076-4.645c1.429,3.926,5.717,12.148,15.01,12.148
				c8.396,0,12.148-6.256,12.148-11.794c0-6.97-5.001-9.29-11.971-12.328c-8.933-3.931-14.65-6.79-18.045-10.896
				c-2.859-3.577-3.395-7.149-3.395-10.901c0-13.041,9.113-20.724,21.62-20.724c3.931,0,14.473,0.713,20.368,13.401L1275.516,360.86
				z"/>
		</g>
	</g>
</g>
</svg>